<mxfile host="app.diagrams.net" modified="2020-08-06T06:17:27.262Z" agent="5.0 (Windows NT 10.0; Win64; x64) AppleWebKit/537.36 (KHTML, like Gecko) Chrome/84.0.4147.89 Safari/537.36" etag="AmZRIKBV4UGfhy6crzxb" version="13.6.0" type="github">
  <diagram id="FdzIB0XbloKfy5NweyI1" name="Page-1">
    <mxGraphModel dx="1673" dy="896" grid="1" gridSize="10" guides="1" tooltips="1" connect="1" arrows="1" fold="1" page="1" pageScale="1" pageWidth="1169" pageHeight="827" math="0" shadow="0">
      <root>
        <mxCell id="0" />
        <mxCell id="1" parent="0" />
        <mxCell id="olpuKgHOqH5T6lIkOCxs-16" value="&lt;b&gt;&lt;font style=&quot;font-size: 15px&quot;&gt;item 13&lt;/font&gt;&lt;/b&gt;" style="rounded=0;whiteSpace=wrap;html=1;strokeWidth=1;fillColor=#dae8fc;strokeColor=#6c8ebf;" vertex="1" parent="1">
          <mxGeometry x="470" y="644" width="280" height="40" as="geometry" />
        </mxCell>
        <mxCell id="olpuKgHOqH5T6lIkOCxs-4" value="&lt;b&gt;&lt;font style=&quot;font-size: 15px&quot;&gt;item 1&lt;/font&gt;&lt;/b&gt;" style="rounded=0;whiteSpace=wrap;html=1;strokeWidth=1;fillColor=#f5f5f5;strokeColor=#666666;fontColor=#333333;" vertex="1" parent="1">
          <mxGeometry x="470" y="44" width="280" height="40" as="geometry" />
        </mxCell>
        <mxCell id="olpuKgHOqH5T6lIkOCxs-5" value="&lt;b&gt;&lt;font style=&quot;font-size: 15px&quot;&gt;item 2&lt;/font&gt;&lt;/b&gt;" style="rounded=0;whiteSpace=wrap;html=1;strokeWidth=1;fillColor=#f5f5f5;strokeColor=#666666;fontColor=#333333;" vertex="1" parent="1">
          <mxGeometry x="470" y="94" width="280" height="40" as="geometry" />
        </mxCell>
        <mxCell id="olpuKgHOqH5T6lIkOCxs-6" value="&lt;b&gt;&lt;font style=&quot;font-size: 15px&quot;&gt;item 3&lt;/font&gt;&lt;/b&gt;" style="rounded=0;whiteSpace=wrap;html=1;strokeWidth=1;fillColor=#dae8fc;strokeColor=#6c8ebf;" vertex="1" parent="1">
          <mxGeometry x="470" y="144" width="280" height="40" as="geometry" />
        </mxCell>
        <mxCell id="olpuKgHOqH5T6lIkOCxs-1" value="" style="rounded=0;whiteSpace=wrap;html=1;dashed=1;strokeWidth=3;fillColor=none;" vertex="1" parent="1">
          <mxGeometry x="470" y="164" width="280" height="500" as="geometry" />
        </mxCell>
        <mxCell id="olpuKgHOqH5T6lIkOCxs-7" value="&lt;b&gt;&lt;font style=&quot;font-size: 15px&quot;&gt;item 4&lt;/font&gt;&lt;/b&gt;" style="rounded=0;whiteSpace=wrap;html=1;strokeWidth=1;fillColor=#dae8fc;strokeColor=#6c8ebf;" vertex="1" parent="1">
          <mxGeometry x="470" y="194" width="280" height="40" as="geometry" />
        </mxCell>
        <mxCell id="olpuKgHOqH5T6lIkOCxs-8" value="&lt;b&gt;&lt;font style=&quot;font-size: 15px&quot;&gt;item 5&lt;/font&gt;&lt;/b&gt;" style="rounded=0;whiteSpace=wrap;html=1;strokeWidth=1;fillColor=#dae8fc;strokeColor=#6c8ebf;" vertex="1" parent="1">
          <mxGeometry x="470" y="244" width="280" height="40" as="geometry" />
        </mxCell>
        <mxCell id="olpuKgHOqH5T6lIkOCxs-9" value="&lt;b&gt;&lt;font style=&quot;font-size: 15px&quot;&gt;item 6&lt;/font&gt;&lt;/b&gt;" style="rounded=0;whiteSpace=wrap;html=1;strokeWidth=1;fillColor=#dae8fc;strokeColor=#6c8ebf;" vertex="1" parent="1">
          <mxGeometry x="470" y="294" width="280" height="40" as="geometry" />
        </mxCell>
        <mxCell id="olpuKgHOqH5T6lIkOCxs-10" value="&lt;b&gt;&lt;font style=&quot;font-size: 15px&quot;&gt;item 7&lt;/font&gt;&lt;/b&gt;" style="rounded=0;whiteSpace=wrap;html=1;strokeWidth=1;fillColor=#dae8fc;strokeColor=#6c8ebf;" vertex="1" parent="1">
          <mxGeometry x="470" y="344" width="280" height="40" as="geometry" />
        </mxCell>
        <mxCell id="olpuKgHOqH5T6lIkOCxs-11" value="&lt;b&gt;&lt;font style=&quot;font-size: 15px&quot;&gt;item 8&lt;/font&gt;&lt;/b&gt;" style="rounded=0;whiteSpace=wrap;html=1;strokeWidth=1;fillColor=#dae8fc;strokeColor=#6c8ebf;" vertex="1" parent="1">
          <mxGeometry x="470" y="394" width="280" height="40" as="geometry" />
        </mxCell>
        <mxCell id="olpuKgHOqH5T6lIkOCxs-12" value="&lt;b&gt;&lt;font style=&quot;font-size: 15px&quot;&gt;item 9&lt;/font&gt;&lt;/b&gt;" style="rounded=0;whiteSpace=wrap;html=1;strokeWidth=1;fillColor=#dae8fc;strokeColor=#6c8ebf;" vertex="1" parent="1">
          <mxGeometry x="470" y="444" width="280" height="40" as="geometry" />
        </mxCell>
        <mxCell id="olpuKgHOqH5T6lIkOCxs-13" value="&lt;b&gt;&lt;font style=&quot;font-size: 15px&quot;&gt;item 10&lt;/font&gt;&lt;/b&gt;" style="rounded=0;whiteSpace=wrap;html=1;strokeWidth=1;fillColor=#dae8fc;strokeColor=#6c8ebf;" vertex="1" parent="1">
          <mxGeometry x="470" y="494" width="280" height="40" as="geometry" />
        </mxCell>
        <mxCell id="olpuKgHOqH5T6lIkOCxs-14" value="&lt;b&gt;&lt;font style=&quot;font-size: 15px&quot;&gt;item 11&lt;/font&gt;&lt;/b&gt;" style="rounded=0;whiteSpace=wrap;html=1;strokeWidth=1;fillColor=#dae8fc;strokeColor=#6c8ebf;" vertex="1" parent="1">
          <mxGeometry x="470" y="544" width="280" height="40" as="geometry" />
        </mxCell>
        <mxCell id="olpuKgHOqH5T6lIkOCxs-15" value="&lt;b&gt;&lt;font style=&quot;font-size: 15px&quot;&gt;item 12&lt;/font&gt;&lt;/b&gt;" style="rounded=0;whiteSpace=wrap;html=1;strokeWidth=1;fillColor=#dae8fc;strokeColor=#6c8ebf;" vertex="1" parent="1">
          <mxGeometry x="470" y="594" width="280" height="40" as="geometry" />
        </mxCell>
        <mxCell id="olpuKgHOqH5T6lIkOCxs-17" value="&lt;b&gt;&lt;font style=&quot;font-size: 15px&quot;&gt;item 14&lt;/font&gt;&lt;/b&gt;" style="rounded=0;whiteSpace=wrap;html=1;strokeWidth=1;fillColor=#f5f5f5;strokeColor=#666666;fontColor=#333333;" vertex="1" parent="1">
          <mxGeometry x="470" y="694" width="280" height="40" as="geometry" />
        </mxCell>
        <mxCell id="olpuKgHOqH5T6lIkOCxs-18" value="&lt;b&gt;&lt;font style=&quot;font-size: 15px&quot;&gt;item 15&lt;/font&gt;&lt;/b&gt;" style="rounded=0;whiteSpace=wrap;html=1;strokeWidth=1;fillColor=#f5f5f5;strokeColor=#666666;fontColor=#333333;" vertex="1" parent="1">
          <mxGeometry x="470" y="744" width="280" height="40" as="geometry" />
        </mxCell>
        <mxCell id="olpuKgHOqH5T6lIkOCxs-19" value="&lt;b&gt;&lt;font style=&quot;font-size: 18px&quot;&gt;FirstIndex&lt;/font&gt;&lt;/b&gt;" style="text;html=1;strokeColor=none;fillColor=none;align=center;verticalAlign=middle;whiteSpace=wrap;rounded=0;" vertex="1" parent="1">
          <mxGeometry x="770" y="154" width="90" height="20" as="geometry" />
        </mxCell>
        <mxCell id="olpuKgHOqH5T6lIkOCxs-20" value="&lt;b&gt;&lt;font style=&quot;font-size: 18px&quot;&gt;LastIndex&lt;/font&gt;&lt;/b&gt;" style="text;html=1;strokeColor=none;fillColor=none;align=center;verticalAlign=middle;whiteSpace=wrap;rounded=0;" vertex="1" parent="1">
          <mxGeometry x="770" y="654" width="90" height="20" as="geometry" />
        </mxCell>
        <mxCell id="olpuKgHOqH5T6lIkOCxs-22" value="" style="strokeWidth=2;html=1;shape=mxgraph.flowchart.annotation_1;align=left;pointerEvents=1;fillColor=none;" vertex="1" parent="1">
          <mxGeometry x="390" y="154" width="50" height="510" as="geometry" />
        </mxCell>
        <mxCell id="olpuKgHOqH5T6lIkOCxs-23" value="&lt;span style=&quot;font-size: 18px&quot;&gt;&lt;b&gt;Virtual List&lt;/b&gt;&lt;/span&gt;" style="text;html=1;strokeColor=none;fillColor=none;align=center;verticalAlign=middle;whiteSpace=wrap;rounded=0;" vertex="1" parent="1">
          <mxGeometry x="260" y="394" width="120" height="20" as="geometry" />
        </mxCell>
      </root>
    </mxGraphModel>
  </diagram>
</mxfile>
